<svg
  width="60"
  height="60"
  viewBox="0 0 60 60"
  fill="none"
  xmlns="http://www.w3.org/2000/svg"
>
  <path
    fill-rule="evenodd"
    clip-rule="evenodd"
    d="M51.2141 8.78489C62.9304 20.501 62.9304 39.4965 51.2141 51.2128C39.4979 62.9291 20.5024 62.9291 8.78623 51.2128C-2.93005 39.4965 -2.93005 20.501 8.78623 8.78489C20.4993 -2.9283 39.4979 -2.9283 51.2141 8.78489Z"
    fill="none"
  />
  <path
    d="M21.1606 38.8384L21.1607 38.8385C26.0426 43.7205 33.9576 43.7206 38.8398 38.8384C43.7214 33.9568 43.7218 26.0429 38.8414 21.1609C38.8413 21.1608 38.8411 21.1606 38.841 21.1605M21.1606 38.8384L38.841 21.1605M21.1606 38.8384C16.2785 33.9563 16.2786 26.0412 21.1605 21.1593L21.1607 21.1592C26.0381 16.2817 33.9563 16.2788 38.8398 21.1593M21.1606 38.8384L38.8398 21.1593M38.841 21.1605C38.8406 21.1601 38.8402 21.1597 38.8398 21.1593M38.841 21.1605L38.8398 21.1593M8.7964 51.2026L8.78623 51.2128L8.7964 51.2026Z"
    stroke="url(#paint0_linear_2062_267)"
    stroke-opacity="0.2"
    stroke-width="35"
  />
  <path
    fill-rule="evenodd"
    clip-rule="evenodd"
    d="M17.3662 57.2174V41.4621C17.3662 39.9779 17.7135 38.5126 18.3862 37.1893L29.9983 14.2084L41.6102 37.1893C42.2819 38.5134 42.6314 39.9774 42.6304 41.4621V57.2174"
    fill="white"
  />
  <path
    d="M17.3662 57.2174V41.4621C17.3662 39.9779 17.7135 38.5126 18.3862 37.1893L29.9983 14.2084L41.6102 37.1893C42.2819 38.5134 42.6314 39.9774 42.6304 41.4621V57.2174"
    stroke="#1A1D2D"
  />
  <path
    fill-rule="evenodd"
    clip-rule="evenodd"
    d="M42.3877 39.3878L36.3969 43.8817L29.9988 39.0815L23.6005 43.8817L17.6099 39.3878"
    fill="white"
  />
  <path
    d="M42.3877 39.3869L36.3969 43.8808L29.9988 39.0805L23.6005 43.8808L17.6099 39.3869M34.3107 22.7013L29.9029 26.1154L25.7755 22.9192M23.4958 43.5273V59.2319M36.4693 43.5273V59.2319"
    stroke="#1A1D2D"
  />
  <path
    d="M50.2176 26.3809C49.0711 26.3809 48.1417 27.3103 48.1417 28.4568C48.1417 29.6033 49.0711 30.5327 50.2176 30.5327C51.3641 30.5327 52.2935 29.6033 52.2935 28.4568C52.2935 27.3103 51.3641 26.3809 50.2176 26.3809Z"
    fill="#1A1D2D"
  />
  <path
    d="M47.7252 12.9036C46.0946 12.9036 44.7727 14.2255 44.7727 15.8561C44.7727 17.4867 46.0946 18.8086 47.7252 18.8086C49.3558 18.8086 50.6777 17.4867 50.6777 15.8561C50.6777 14.2255 49.3558 12.9036 47.7252 12.9036Z"
    fill="#1A1D2D"
  />
  <path
    d="M11.9439 23.0117C11.0001 23.0117 10.235 23.7768 10.235 24.7206C10.235 25.6643 11.0001 26.4294 11.9439 26.4294C12.8877 26.4294 13.6528 25.6643 13.6528 24.7206C13.6528 23.7768 12.8877 23.0117 11.9439 23.0117Z"
    fill="#1A1D2D"
  />
  <path
    d="M12.1823 45.4351C11.1074 45.4351 10.2361 44.5638 10.2361 43.4889C10.2361 42.4141 11.1074 41.5428 12.1823 41.5428C13.2571 41.5428 14.1284 42.4141 14.1284 43.4889C14.1284 44.5638 13.2571 45.4351 12.1823 45.4351Z"
    fill="#1A1D2D"
  />
  <path
    d="M9.45946 13.8762C8.95786 13.8762 8.55124 13.4696 8.55124 12.968C8.55124 12.4664 8.95786 12.0598 9.45946 12.0598C9.96105 12.0598 10.3677 12.4664 10.3677 12.968C10.3677 13.4696 9.96105 13.8762 9.45946 13.8762Z"
    fill="#1A1D2D"
  />
  <path
    d="M47.5567 49.0886C46.8478 49.0886 46.2731 48.5139 46.2731 47.8049C46.2731 47.096 46.8478 46.5213 47.5567 46.5213C48.2656 46.5213 48.8403 47.096 48.8403 47.8049C48.8403 48.5139 48.2656 49.0886 47.5567 49.0886Z"
    fill="#1A1D2D"
  />
  <path
    d="M37.5431 8.87591C36.7549 8.87591 36.116 8.23696 36.116 7.44879C36.116 6.66061 36.7549 6.02167 37.5431 6.02167C38.3313 6.02167 38.9702 6.66061 38.9702 7.44879C38.9702 8.23696 38.3313 8.87591 37.5431 8.87591Z"
    fill="#1A1D2D"
  />
  <path
    d="M47.5846 37.1917C46.8603 37.1917 46.2731 36.722 46.2731 36.1426C46.2731 35.5631 46.8603 35.0934 47.5846 35.0934C48.3088 35.0934 48.896 35.5631 48.896 36.1426C48.896 36.722 48.3088 37.1917 47.5846 37.1917Z"
    fill="#1A1D2D"
  />
</svg>
