<svg
  width="60"
  height="60"
  viewBox="0 0 60 60"
  fill="none"
  xmlns="http://www.w3.org/2000/svg"
>
  <path
    d="M14.8561 50.9172C14.6374 50.9172 14.4602 50.74 14.4602 50.5213C14.4602 50.3027 14.6374 50.1254 14.8561 50.1254C15.0747 50.1254 15.252 50.3027 15.252 50.5213C15.252 50.74 15.0747 50.9172 14.8561 50.9172Z"
    fill="#E1E4E5"
  />
  <path
    d="M29.4267 29.8082V25.5764M29.4267 49.417V42.9268M22.9365 49.417H35.9169"
    stroke="#1A1D2D"
    stroke-width="2"
    stroke-linecap="round"
    stroke-linejoin="round"
  />
  <path
    d="M16.0653 15.5517L16.0661 15.551L20.801 11.7675C21.3894 11.313 22.1041 11.0524 22.85 11.0524H40.7196C42.5439 11.0524 44.0055 12.5178 44.0055 14.3167L44.0055 21.8886L44.0055 21.8899C44.0066 22.3215 43.9224 22.7491 43.7578 23.1481C43.5931 23.5471 43.3512 23.9097 43.046 24.2149C42.7407 24.5201 42.3782 24.762 41.9792 24.9267C41.5802 25.0914 41.1526 25.1756 40.7209 25.1745H40.7196H22.85C22.1152 25.1745 21.3834 24.9291 20.8058 24.4632L20.8041 24.4618L16.0661 20.6759L16.0653 20.6752C14.4131 19.3609 14.4131 16.8659 16.0653 15.5517ZM42.8307 32.7818L42.8316 32.7825C44.4837 34.0967 44.4837 36.5917 42.8316 37.9059L42.8307 37.9066L38.0928 41.6926L38.0911 41.694C37.5134 42.1598 36.7817 42.4053 36.0468 42.4053L18.1771 42.4053L18.1759 42.4053C17.7442 42.4064 17.3166 42.3222 16.9176 42.1575C16.5185 41.9928 16.156 41.7509 15.8508 41.4456C15.5456 41.1404 15.3037 40.7779 15.139 40.3789C14.9743 39.9798 14.8901 39.5522 14.8912 39.1206V39.1193V31.5475C14.8912 29.7486 16.3529 28.2832 18.1771 28.2832H36.0468C36.7928 28.2832 37.5076 28.5437 38.096 28.9984L42.8307 32.7818Z"
    fill="white"
    stroke="#1A1D2D"
  />
  <rect x="23" y="16" width="16" height="1" rx="0.5" fill="#1A1D2D" />
  <rect x="27" y="19" width="12" height="1" rx="0.5" fill="#1A1D2D" />
  <rect x="20" y="33" width="16" height="1" rx="0.5" fill="#1A1D2D" />
  <rect x="20" y="36" width="12" height="1" rx="0.5" fill="#1A1D2D" />
</svg>
