<svg
  width="60"
  height="60"
  viewBox="0 0 60 60"
  fill="none"
  xmlns="http://www.w3.org/2000/svg"
>
  <path
    d="M19.3937 40.6065L19.3937 40.6064C13.5354 34.7479 13.5355 25.2496 19.3936 19.3914L19.3937 19.3912C25.2472 13.5375 34.7472 13.535 40.6064 19.3914C40.6067 19.3917 40.607 19.392 40.6073 19.3923C40.6075 19.3924 40.6076 19.3926 40.6077 19.3927C46.4645 25.2511 46.4641 34.7483 40.6063 40.6064C34.7484 46.4646 25.2515 46.4645 19.3937 40.6065ZM8.79196 51.2077L8.78687 51.2128L8.79196 51.2077Z"
    stroke="url(#paint0_linear_2060_266)"
    stroke-opacity="0.2"
    stroke-width="30"
  />
  <path
    d="M15.3798 42.6492C14.8836 42.6492 14.4813 42.2469 14.4813 41.7507C14.4813 41.2544 14.8836 40.8522 15.3798 40.8522C15.8761 40.8522 16.2783 41.2544 16.2783 41.7507C16.2783 42.2469 15.8761 42.6492 15.3798 42.6492Z"
    fill="url(#paint1_linear_2060_266)"
    fill-opacity="0.2"
  />
  <path
    d="M28.2678 48.2428C27.7105 48.2428 27.2587 47.8814 27.2587 47.4356C27.2587 46.9897 27.7105 46.6283 28.2678 46.6283C28.8251 46.6283 29.2769 46.9897 29.2769 47.4356C29.2769 47.8814 28.8251 48.2428 28.2678 48.2428Z"
    fill="url(#paint2_linear_2060_266)"
    fill-opacity="0.2"
  />
  <path
    fill-rule="evenodd"
    clip-rule="evenodd"
    d="M46.3596 15.3001L38.942 7.85791C38.4556 7.36952 37.8777 6.9819 37.2412 6.71727C36.6048 6.45264 35.9224 6.31621 35.2332 6.3158H16.4217C13.5234 6.3158 11.1758 8.67106 11.1758 11.579V48.4212C11.1758 51.3289 13.5234 53.6842 16.4217 53.6842H42.6509C45.5492 53.6842 47.8966 51.3289 47.8966 48.4212V19.0211C47.8965 17.6263 47.3439 16.2883 46.3596 15.3001Z"
    fill="white"
    stroke="url(#paint3_linear_2060_266)"
    stroke-opacity="0.2"
  />
  <path
    d="M21.9784 20.1783C21.9784 18.4016 20.5381 16.9613 18.7614 16.9613C16.9847 16.9613 15.5444 18.4016 15.5444 20.1783C15.5444 21.955 16.9847 23.3953 18.7614 23.3953C20.5381 23.3953 21.9784 21.955 21.9784 20.1783Z"
    fill="#1A1D2D"
  />
  <path
    d="M18.7609 18.7284H18.7608C17.9596 18.7284 17.3101 19.3779 17.3101 20.1792V20.1793C17.3101 20.9805 17.9596 21.63 18.7608 21.63H18.7609C19.5622 21.63 20.2117 20.9805 20.2117 20.1793V20.1792C20.2117 19.3779 19.5622 18.7284 18.7609 18.7284Z"
    fill="white"
  />
  <path
    d="M42.8044 17.4702H24.1234C23.874 17.4702 23.6719 17.6723 23.6719 17.9217C23.6719 18.171 23.874 18.3732 24.1234 18.3732H42.8044C43.0538 18.3732 43.2559 18.171 43.2559 17.9217C43.2559 17.6723 43.0538 17.4702 42.8044 17.4702Z"
    fill="url(#paint4_linear_2060_266)"
    fill-opacity="0.2"
  />
  <path
    d="M42.8044 19.6721H24.1234C23.874 19.6721 23.6719 19.8742 23.6719 20.1236C23.6719 20.3729 23.874 20.5751 24.1234 20.5751H42.8044C43.0538 20.5751 43.2559 20.3729 43.2559 20.1236C43.2559 19.8742 43.0538 19.6721 42.8044 19.6721Z"
    fill="url(#paint5_linear_2060_266)"
    fill-opacity="0.2"
  />
  <path
    d="M42.8044 21.8709H24.1234C23.874 21.8709 23.6719 22.073 23.6719 22.3224C23.6719 22.5717 23.874 22.7739 24.1234 22.7739H42.8044C43.0538 22.7739 43.2559 22.5717 43.2559 22.3224C43.2559 22.073 43.0538 21.8709 42.8044 21.8709Z"
    fill="url(#paint6_linear_2060_266)"
    fill-opacity="0.2"
  />
  <path
    d="M21.9784 28.2519C21.9784 26.4752 20.5381 25.0349 18.7614 25.0349C16.9847 25.0349 15.5444 26.4752 15.5444 28.2519C15.5444 30.0286 16.9847 31.4689 18.7614 31.4689C20.5381 31.4689 21.9784 30.0286 21.9784 28.2519Z"
    fill="#1A1D2D"
  />
  <path
    d="M18.7609 26.802H18.7608C17.9596 26.802 17.3101 27.4516 17.3101 28.2528V28.2529C17.3101 29.0541 17.9596 29.7037 18.7608 29.7037H18.7609C19.5622 29.7037 20.2117 29.0541 20.2117 28.2529V28.2528C20.2117 27.4516 19.5622 26.802 18.7609 26.802Z"
    fill="white"
  />
  <path
    d="M42.8044 25.5407H24.1234C23.874 25.5407 23.6719 25.7428 23.6719 25.9922C23.6719 26.2415 23.874 26.4437 24.1234 26.4437H42.8044C43.0538 26.4437 43.2559 26.2415 43.2559 25.9922C43.2559 25.7428 43.0538 25.5407 42.8044 25.5407Z"
    fill="url(#paint7_linear_2060_266)"
    fill-opacity="0.2"
  />
  <path
    d="M42.8044 27.7426H24.1234C23.874 27.7426 23.6719 27.9447 23.6719 28.1941C23.6719 28.4434 23.874 28.6456 24.1234 28.6456H42.8044C43.0538 28.6456 43.2559 28.4434 43.2559 28.1941C43.2559 27.9447 43.0538 27.7426 42.8044 27.7426Z"
    fill="url(#paint8_linear_2060_266)"
    fill-opacity="0.2"
  />
  <path
    d="M42.8044 29.9445H24.1234C23.874 29.9445 23.6719 30.1466 23.6719 30.396C23.6719 30.6453 23.874 30.8475 24.1234 30.8475H42.8044C43.0538 30.8475 43.2559 30.6453 43.2559 30.396C43.2559 30.1466 43.0538 29.9445 42.8044 29.9445Z"
    fill="url(#paint9_linear_2060_266)"
    fill-opacity="0.2"
  />
  <path
    d="M21.9784 36.3255C21.9784 34.5488 20.5381 33.1086 18.7614 33.1086C16.9847 33.1086 15.5444 34.5488 15.5444 36.3255C15.5444 38.1022 16.9847 39.5425 18.7614 39.5425C20.5381 39.5425 21.9784 38.1022 21.9784 36.3255Z"
    fill="#1A1D2D"
  />
  <path
    d="M18.7609 34.8725H18.7608C17.9596 34.8725 17.3101 35.5221 17.3101 36.3233V36.3234C17.3101 37.1246 17.9596 37.7742 18.7608 37.7742H18.7609C19.5622 37.7742 20.2117 37.1246 20.2117 36.3234V36.3233C20.2117 35.5221 19.5622 34.8725 18.7609 34.8725Z"
    fill="white"
  />
  <path
    d="M42.8044 33.6143H24.1234C23.874 33.6143 23.6719 33.8165 23.6719 34.0658C23.6719 34.3152 23.874 34.5173 24.1234 34.5173H42.8044C43.0538 34.5173 43.2559 34.3152 43.2559 34.0658C43.2559 33.8165 43.0538 33.6143 42.8044 33.6143Z"
    fill="url(#paint10_linear_2060_266)"
    fill-opacity="0.2"
  />
  <path
    d="M42.8044 35.8162H24.1234C23.874 35.8162 23.6719 36.0183 23.6719 36.2677C23.6719 36.517 23.874 36.7192 24.1234 36.7192H42.8044C43.0538 36.7192 43.2559 36.517 43.2559 36.2677C43.2559 36.0183 43.0538 35.8162 42.8044 35.8162Z"
    fill="url(#paint11_linear_2060_266)"
    fill-opacity="0.2"
  />
  <path
    d="M42.8044 38.0181H24.1234C23.874 38.0181 23.6719 38.2202 23.6719 38.4696C23.6719 38.7189 23.874 38.9211 24.1234 38.9211H42.8044C43.0538 38.9211 43.2559 38.7189 43.2559 38.4696C43.2559 38.2202 43.0538 38.0181 42.8044 38.0181Z"
    fill="url(#paint12_linear_2060_266)"
    fill-opacity="0.2"
  />
  <path
    d="M21.9784 44.3961C21.9784 42.6194 20.5381 41.1791 18.7614 41.1791C16.9847 41.1791 15.5444 42.6194 15.5444 44.3961C15.5444 46.1728 16.9847 47.613 18.7614 47.613C20.5381 47.613 21.9784 46.1728 21.9784 44.3961Z"
    fill="#1A1D2D"
  />
  <path
    d="M18.7609 42.9461H18.7608C17.9596 42.9461 17.3101 43.5957 17.3101 44.3969V44.397C17.3101 45.1983 17.9596 45.8478 18.7608 45.8478H18.7609C19.5622 45.8478 20.2117 45.1983 20.2117 44.397V44.3969C20.2117 43.5957 19.5622 42.9461 18.7609 42.9461Z"
    fill="white"
  />
  <path
    d="M42.8044 41.6879H24.1234C23.874 41.6879 23.6719 41.89 23.6719 42.1394C23.6719 42.3887 23.874 42.5909 24.1234 42.5909H42.8044C43.0538 42.5909 43.2559 42.3887 43.2559 42.1394C43.2559 41.89 43.0538 41.6879 42.8044 41.6879Z"
    fill="url(#paint13_linear_2060_266)"
    fill-opacity="0.2"
  />
  <path
    d="M42.8044 43.8898H24.1234C23.874 43.8898 23.6719 44.0919 23.6719 44.3413C23.6719 44.5906 23.874 44.7928 24.1234 44.7928H42.8044C43.0538 44.7928 43.2559 44.5906 43.2559 44.3413C43.2559 44.0919 43.0538 43.8898 42.8044 43.8898Z"
    fill="url(#paint14_linear_2060_266)"
    fill-opacity="0.2"
  />
  <path
    d="M42.8044 46.0886H24.1234C23.874 46.0886 23.6719 46.2907 23.6719 46.5401C23.6719 46.7894 23.874 46.9916 24.1234 46.9916H42.8044C43.0538 46.9916 43.2559 46.7894 43.2559 46.5401C43.2559 46.2907 43.0538 46.0886 42.8044 46.0886Z"
    fill="url(#paint15_linear_2060_266)"
    fill-opacity="0.2"
  />
  <path
    d="M44.8949 53.6806C50.7 53.6806 55.406 48.9746 55.406 43.1694C55.406 37.3643 50.7 32.6583 44.8949 32.6583C39.0898 32.6583 34.3838 37.3643 34.3838 43.1694C34.3838 48.9746 39.0898 53.6806 44.8949 53.6806Z"
    fill="#1A1D2D"
  />
  <path
    d="M42.3909 46.6188H41.4563C41.3176 46.6188 41.1847 46.5637 41.0867 46.4657C40.9887 46.3677 40.9336 46.2348 40.9336 46.0962V42.4388C40.9336 42.3002 40.9887 42.1673 41.0867 42.0692C41.1847 41.9712 41.3176 41.9162 41.4563 41.9161H42.3909C42.5295 41.9161 42.6625 41.9712 42.7605 42.0692C42.8585 42.1672 42.9136 42.3002 42.9137 42.4388V46.0962C42.9136 46.2348 42.8585 46.3677 42.7605 46.4658C42.6625 46.5638 42.5295 46.6188 42.3909 46.6188V46.6188Z"
    stroke="white"
    stroke-linecap="round"
    stroke-linejoin="round"
  />
  <path
    d="M42.9155 42.448L44.7219 40.0961C45.058 39.658 45.7144 39.6471 46.0654 40.0733C46.1964 40.2323 46.268 40.432 46.2678 40.6381V42.2574H47.8005C47.9469 42.2574 48.0911 42.2935 48.2202 42.3625C48.3494 42.4315 48.4595 42.5312 48.541 42.6529L48.7038 42.896C48.776 43.0038 48.8238 43.126 48.8438 43.2542C48.8638 43.3824 48.8555 43.5134 48.8196 43.638L48.1469 45.9756C48.0935 46.1614 47.9811 46.3247 47.8267 46.4409C47.6723 46.5572 47.4843 46.6201 47.291 46.6201H44.1778C44.0553 46.6202 43.9342 46.5949 43.822 46.546C43.7097 46.4971 43.6087 46.4256 43.5253 46.3359L42.9155 45.6795"
    stroke="white"
    stroke-linecap="round"
    stroke-linejoin="round"
  />
  <defs>
    <linearGradient
      id="paint1_linear_2060_266"
      x1="15.3798"
      y1="40.8522"
      x2="15.3798"
      y2="42.6492"
      gradientUnits="userSpaceOnUse"
    >
      <stop stop-color="#4D76A8" />
      <stop offset="1" stop-color="#E9865B" />
    </linearGradient>
    <linearGradient
      id="paint2_linear_2060_266"
      x1="28.2678"
      y1="46.6283"
      x2="28.2678"
      y2="48.2428"
      gradientUnits="userSpaceOnUse"
    >
      <stop stop-color="#4D76A8" />
      <stop offset="1" stop-color="#E9865B" />
    </linearGradient>
    <linearGradient
      id="paint3_linear_2060_266"
      x1="29.5362"
      y1="6.3158"
      x2="29.5362"
      y2="53.6842"
      gradientUnits="userSpaceOnUse"
    >
      <stop stop-color="#4D76A8" />
      <stop offset="1" stop-color="#E9865B" />
    </linearGradient>
    <linearGradient
      id="paint4_linear_2060_266"
      x1="33.4639"
      y1="17.4702"
      x2="33.4639"
      y2="18.3732"
      gradientUnits="userSpaceOnUse"
    >
      <stop stop-color="#4D76A8" />
      <stop offset="1" stop-color="#E9865B" />
    </linearGradient>
    <linearGradient
      id="paint5_linear_2060_266"
      x1="33.4639"
      y1="19.6721"
      x2="33.4639"
      y2="20.5751"
      gradientUnits="userSpaceOnUse"
    >
      <stop stop-color="#4D76A8" />
      <stop offset="1" stop-color="#E9865B" />
    </linearGradient>
    <linearGradient
      id="paint6_linear_2060_266"
      x1="33.4639"
      y1="21.8709"
      x2="33.4639"
      y2="22.7739"
      gradientUnits="userSpaceOnUse"
    >
      <stop stop-color="#4D76A8" />
      <stop offset="1" stop-color="#E9865B" />
    </linearGradient>
    <linearGradient
      id="paint7_linear_2060_266"
      x1="33.4639"
      y1="25.5407"
      x2="33.4639"
      y2="26.4437"
      gradientUnits="userSpaceOnUse"
    >
      <stop stop-color="#4D76A8" />
      <stop offset="1" stop-color="#E9865B" />
    </linearGradient>
    <linearGradient
      id="paint8_linear_2060_266"
      x1="33.4639"
      y1="27.7426"
      x2="33.4639"
      y2="28.6456"
      gradientUnits="userSpaceOnUse"
    >
      <stop stop-color="#4D76A8" />
      <stop offset="1" stop-color="#E9865B" />
    </linearGradient>
    <linearGradient
      id="paint9_linear_2060_266"
      x1="33.4639"
      y1="29.9445"
      x2="33.4639"
      y2="30.8475"
      gradientUnits="userSpaceOnUse"
    >
      <stop stop-color="#4D76A8" />
      <stop offset="1" stop-color="#E9865B" />
    </linearGradient>
    <linearGradient
      id="paint10_linear_2060_266"
      x1="33.4639"
      y1="33.6143"
      x2="33.4639"
      y2="34.5173"
      gradientUnits="userSpaceOnUse"
    >
      <stop stop-color="#4D76A8" />
      <stop offset="1" stop-color="#E9865B" />
    </linearGradient>
    <linearGradient
      id="paint11_linear_2060_266"
      x1="33.4639"
      y1="35.8162"
      x2="33.4639"
      y2="36.7192"
      gradientUnits="userSpaceOnUse"
    >
      <stop stop-color="#4D76A8" />
      <stop offset="1" stop-color="#E9865B" />
    </linearGradient>
    <linearGradient
      id="paint12_linear_2060_266"
      x1="33.4639"
      y1="38.0181"
      x2="33.4639"
      y2="38.9211"
      gradientUnits="userSpaceOnUse"
    >
      <stop stop-color="#4D76A8" />
      <stop offset="1" stop-color="#E9865B" />
    </linearGradient>
    <linearGradient
      id="paint13_linear_2060_266"
      x1="33.4639"
      y1="41.6879"
      x2="33.4639"
      y2="42.5909"
      gradientUnits="userSpaceOnUse"
    >
      <stop stop-color="#4D76A8" />
      <stop offset="1" stop-color="#E9865B" />
    </linearGradient>
    <linearGradient
      id="paint14_linear_2060_266"
      x1="33.4639"
      y1="43.8898"
      x2="33.4639"
      y2="44.7928"
      gradientUnits="userSpaceOnUse"
    >
      <stop stop-color="#4D76A8" />
      <stop offset="1" stop-color="#E9865B" />
    </linearGradient>
    <linearGradient
      id="paint15_linear_2060_266"
      x1="33.4639"
      y1="46.0886"
      x2="33.4639"
      y2="46.9916"
      gradientUnits="userSpaceOnUse"
    >
      <stop stop-color="#4D76A8" />
      <stop offset="1" stop-color="#E9865B" />
    </linearGradient>
  </defs>
</svg>
