<svg
  width="60"
  height="60"
  viewBox="0 0 60 60"
  fill="none"
  xmlns="http://www.w3.org/2000/svg"
>
  <path
    d="M30 60C46.5685 60 60 46.5685 60 30C60 13.4315 46.5685 0 30 0C13.4315 0 0 13.4315 0 30C0 46.5685 13.4315 60 30 60Z"
    fill="url(#paint0_linear_2071_2731)"
    fill-opacity="0.2"
  />
  <path
    d="M24.3412 40.0936L24.271 42.3979L24.2617 42.7038L24.3805 42.9858L27.3098 49.9445L27.3099 49.9448C27.6025 50.6392 27.2767 51.4401 26.5808 51.7331L26.5806 51.7332C25.8863 52.0257 25.0854 51.7 24.7924 51.0043C24.7923 51.0042 24.7923 51.0042 24.7923 51.0041L20.8234 41.5745L24.3412 40.0936Z"
    fill="#F1F5F9"
    stroke="#1A1D2D"
    stroke-width="2.81"
  />
  <path
    d="M20.5874 44.6353C22.9621 45.156 24.7134 44.5287 25.6954 42.4853L25.6767 42.4407L25.8134 37.95L18.9834 40.8247L20.5874 44.6353Z"
    fill="#CBD5E1"
  />
  <path
    d="M41.6401 37.4347C41.6575 37.439 41.6748 37.4435 41.6921 37.448C41.7095 37.4525 41.7268 37.457 41.7441 37.4613C43.5321 37.916 45.0628 36.1053 44.3468 34.4047L35.8515 14.2267C35.1361 12.526 32.7715 12.3553 31.8468 13.9513M41.6401 37.4347L41.7656 36.9507C41.7649 36.9505 41.7642 36.9503 41.7634 36.9501M41.6401 37.4347L41.7614 36.9496C41.7621 36.9498 41.7627 36.9499 41.7634 36.9501M41.6401 37.4347C36.7348 36.1627 31.5388 36.6447 26.8681 38.6107L19.8181 41.5787M41.7634 36.9501C41.7822 36.9548 41.8006 36.9596 41.8167 36.9638L41.8178 36.964L41.8654 36.9763L41.8673 36.9768C43.2455 37.3272 44.4456 35.9279 43.886 34.5987L35.3906 14.4207L35.3906 14.4205C34.8317 13.092 32.9932 12.9717 32.28 14.2011M41.7634 36.9501C36.7455 35.6495 31.4383 36.1445 26.6741 38.1498L26.6741 38.1498L19.6241 41.1178M32.28 14.2011C32.2801 14.2008 32.2802 14.2006 32.2803 14.2004L31.8468 13.9513M32.28 14.2011C32.2798 14.2014 32.2796 14.2017 32.2794 14.202L31.8468 13.9513M32.28 14.2011C32.2737 14.2119 32.2682 14.2216 32.263 14.2304C32.2509 14.2514 32.2412 14.2681 32.231 14.2867L32.2274 14.2932L32.2273 14.2932C29.6505 18.7913 25.5863 22.2419 20.8214 24.2475L20.6275 23.7867M31.8468 13.9513C31.842 13.9598 31.8371 13.9681 31.8323 13.9765C31.8192 13.9992 31.8061 14.0218 31.7935 14.0447C29.2748 18.4413 25.2981 21.8207 20.6275 23.7867M20.6275 23.7867L20.8214 24.2475L13.9808 27.1268L13.7868 26.666M20.6275 23.7867L13.7868 26.666M13.7868 26.666L13.9808 27.1268C10.2182 28.7106 8.21982 32.9546 9.61224 36.7526L9.61225 36.7526C11.1049 40.8247 15.6732 42.781 19.6241 41.1178M13.7868 26.666C9.79546 28.346 7.65212 32.8587 9.14279 36.9247C10.7341 41.266 15.6055 43.352 19.8181 41.5787M19.6241 41.1178L19.8181 41.5787M19.6241 41.1178L19.6241 41.1178L19.8181 41.5787"
    fill="#F1F5F9"
    stroke="#1A1D2D"
  />
  <path
    d="M20.7295 24.2858L26.5823 38.1882L19.6234 41.1178C15.6725 42.7809 11.1042 40.8246 9.61151 36.7525L9.6115 36.7525C8.21909 32.9545 10.2174 28.7105 13.98 27.1268L13.7861 26.666L13.98 27.1268L20.7295 24.2858Z"
    fill="#CBD5E1"
    stroke="#1A1D2D"
  />
  <path
    d="M42.7686 32.1833C42.4246 32.11 42.0793 32.0433 41.7339 31.9847C40.3506 31.7473 38.9546 31.6307 37.5586 31.6213L39.8446 37.0513C40.4459 37.1547 41.0453 37.282 41.6393 37.436C41.6739 37.4447 41.7086 37.454 41.7433 37.4627C43.5313 37.9173 45.0619 36.1067 44.3459 34.406L43.4813 32.3513C43.2439 32.2933 43.0066 32.234 42.7686 32.1833Z"
    fill="#CBD5E1"
  />
  <path
    d="M43.69 23.6513C43.1694 23.6513 42.6754 23.3446 42.46 22.8346C42.1747 22.156 42.4934 21.374 43.1714 21.0886L47.3007 19.3506C47.9807 19.0633 48.7607 19.3833 49.0474 20.062C49.3327 20.7406 49.014 21.5226 48.336 21.808L44.2067 23.546C44.038 23.6173 43.8627 23.6513 43.69 23.6513Z"
    fill="#1A1D2D"
  />
  <path
    d="M41.1352 17.584C40.8232 17.584 40.5098 17.4754 40.2572 17.2534C39.7038 16.768 39.6478 15.9254 40.1332 15.372L42.6132 12.5427C43.0985 11.9887 43.9398 11.932 44.4945 12.4187C45.0478 12.904 45.1038 13.7467 44.6185 14.3L42.1385 17.1294C41.8745 17.4307 41.5065 17.584 41.1352 17.584Z"
    fill="#1A1D2D"
  />
  <path
    d="M50.0011 29.9207C49.9765 29.9207 49.9525 29.92 49.9278 29.9187L46.1705 29.7147C45.4351 29.6747 44.8718 29.0467 44.9111 28.3113C44.9511 27.5753 45.5905 27.0173 46.3145 27.052L50.0718 27.256C50.8071 27.296 51.3705 27.924 51.3311 28.6593C51.2925 29.3707 50.7045 29.9207 50.0011 29.9207Z"
    fill="#1A1D2D"
  />
  <path
    d="M32.2629 14.2304C32.268 14.2215 32.2735 14.212 32.2797 14.2012C32.9928 12.9717 34.8316 13.0919 35.3904 14.4205L35.3905 14.4207L43.8851 34.6L43.8851 34.6C44.4448 35.9293 43.2447 37.3285 41.8665 36.9781L41.8646 36.9776L41.8169 36.9654C41.8006 36.9611 41.7819 36.9563 41.7628 36.9515C41.2445 36.8172 40.7229 36.7028 40.2 36.6067L31.3803 15.654C31.6776 15.2119 31.9604 14.7585 32.2271 14.2933L32.2271 14.2934L32.2308 14.2867C32.2411 14.2681 32.2508 14.2513 32.2629 14.2304Z"
    fill="#CBD5E1"
    stroke="#1A1D2D"
  />
</svg>
